<svg xmlns="http://www.w3.org/2000/svg" xmlns:xlink="http://www.w3.org/1999/xlink" width="120" height="90" viewBox="0 0 120 90" fill="none"><g opacity="1"  transform="translate(0 0)  rotate(0)"><mask id="bg-mask-0" fill="white"><use xlink:href="#path_0"></use></mask><g mask="url(#bg-mask-0)" ><g opacity="1"  transform="translate(24 9)  rotate(0)"><path id="圆形 4" fill-rule="evenodd" style="fill:#E6E6E6" opacity="1" d="M36 0C16.12 0 0 16.12 0 36C0 55.88 16.12 72 36 72C55.88 72 72 55.88 72 36C72 16.12 55.88 0 36 0Z"></path><g opacity="1"  transform="translate(10.075851440429688 10.07586669921875)  rotate(0)"><g opacity="1"  transform="translate(5.339996337890625 2.51934814453125)  rotate(0)"></g><g opacity="1"  transform="translate(4.3899993896484375 12.22998046875)  rotate(0)"><path id="文本 5" fill-rule="evenodd" style="fill:#FFFFFF" opacity="1" d="M14.99,0l10.12,24.94h-6.13l-1.91,-5.04h-9.44l-1.84,5.04h-5.79l9.85,-24.94zM12.27,7.26l-2.83,7.77h5.79z"></path><path id="文本 5" fill-rule="evenodd" style="fill:#FFFFFF" opacity="1" d="M35.097,6.84924c3.82,0 5.9,2.13 5.9,2.13c2.07,2.12996 2.07,6.00996 2.07,6.00996v9.95h-4.66c-0.17,-1.43 -0.24,-1.9 -0.24,-1.9c-0.82,1.19 -1.98,1.77 -1.98,1.77c-1.16,0.58 -2.93,0.58 -2.93,0.58c-1.87,0 -3.42,-0.67 -3.42,-0.67c-1.55,-0.66 -2.46,-1.91 -2.46,-1.91c-0.9,-1.24 -0.9,-2.94 -0.9,-2.94c0,-1.77 1.01,-3.12 1.01,-3.12c1,-1.35 2.7,-2.06 2.7,-2.06c1.71,-0.72 3.72,-0.72 3.72,-0.72c1.87,0 3.68,0.65 3.68,0.65c-0.24,-3.34 -3.03,-3.34 -3.03,-3.34c-2.36,0 -3.41,2.18 -3.41,2.18l-3.92,-2.28c0.99,-2.00996 3.05,-3.16996 3.05,-3.16996c2.06,-1.16 4.82,-1.16 4.82,-1.16zM35.067,17.7192c-1.4,0 -2.22,0.51 -2.22,0.51c-0.82,0.51 -0.82,1.36 -0.82,1.36c0,0.79 0.62,1.23 0.62,1.23c0.61,0.44 1.57,0.44 1.57,0.44c1.29,0 2.33,-0.75 2.33,-0.75c1.04,-0.75 1.04,-2.01 1.04,-2.01v-0.44c-1.33,-0.34 -2.52,-0.34 -2.52,-0.34z"></path></g></g></g><g opacity="1"  transform="translate(85.5 7.5)  rotate(0)"><path id="圆形 2" fill-rule="evenodd" style="fill:#E6E6E6" opacity="1" d="M5.25 0C2.35 0 0 2.35 0 5.25C0 8.15 2.35 10.5 5.25 10.5C8.15 10.5 10.5 8.15 10.5 5.25C10.5 2.35 8.15 0 5.25 0Z"></path><path id="圆形 2" fill-rule="evenodd" style="fill:#E6E6E6" opacity="1" d="M21.38 12.75C19.93 12.75 18.75 13.93 18.75 15.38C18.75 16.82 19.93 18 21.38 18C22.82 18 24 16.82 24 15.38C24 13.93 22.82 12.75 21.38 12.75Z"></path></g><path id="圆形 2" fill-rule="evenodd" style="fill:#E6E6E6" opacity="1" d="M21 63C18.93 63 17.25 64.68 17.25 66.75C17.25 68.82 18.93 70.5 21 70.5C23.07 70.5 24.75 68.82 24.75 66.75C24.75 64.68 23.07 63 21 63Z"></path></g></g><defs><rect id="path_0" x="0" y="0" width="120" height="90" /></defs></svg>