<svg xmlns="http://www.w3.org/2000/svg" xmlns:xlink="http://www.w3.org/1999/xlink" width="120" height="90" viewBox="0 0 120 90" fill="none"><g opacity="1"  transform="translate(0 0)  rotate(0)"><mask id="bg-mask-0" fill="white"><use xlink:href="#path_0"></use></mask><g mask="url(#bg-mask-0)" ><g opacity="1"  transform="translate(24 9)  rotate(0)"><path id="圆形 4" fill-rule="evenodd" style="fill:#E6E6E6" opacity="1" d="M36 0C16.12 0 0 16.12 0 36C0 55.88 16.12 72 36 72C55.88 72 72 55.88 72 36C72 16.12 55.88 0 36 0Z"></path><g opacity="1"  transform="translate(12 18)  rotate(0)"><path id="矩形 5" fill-rule="evenodd" style="fill:#FFFFFF" opacity="0.6" d="M4.44959 29.69L40.8996 29.69C42.5796 29.69 43.9496 28.33 43.9496 26.65L43.9496 6.12C43.9496 4.43 42.5896 3.07 40.8996 3.07L27.0096 3.07C25.8296 3.07 24.6696 2.8 23.6096 2.27L20.4496 0.69C19.5296 0.23 18.5196 0 17.4996 0L4.44959 0C2.76959 0 1.40959 1.36 1.40959 3.04L1.40959 26.65C1.40959 28.33 2.76959 29.69 4.44959 29.69Z"></path><path id="矩形 5" fill-rule="evenodd" style="fill:#FFFFFF" opacity="1" d="M4.3 36.3531L42.01 36.3531C43.55 36.3531 44.85 35.1931 45.03 33.6631L47.6 11.8431C47.81 10.0331 46.4 8.44305 44.58 8.44305L3.2 8.44305C1.46 8.44305 0.07 9.90305 0.16 11.6431L1.26 33.4631C1.34 35.0831 2.68 36.3531 4.3 36.3531Z"></path></g></g><g opacity="1"  transform="translate(85.5 7.5)  rotate(0)"><path id="圆形 2" fill-rule="evenodd" style="fill:#E6E6E6" opacity="1" d="M5.25 0C2.35 0 0 2.35 0 5.25C0 8.15 2.35 10.5 5.25 10.5C8.15 10.5 10.5 8.15 10.5 5.25C10.5 2.35 8.15 0 5.25 0Z"></path><path id="圆形 2" fill-rule="evenodd" style="fill:#E6E6E6" opacity="1" d="M21.38 12.75C19.93 12.75 18.75 13.93 18.75 15.38C18.75 16.82 19.93 18 21.38 18C22.82 18 24 16.82 24 15.38C24 13.93 22.82 12.75 21.38 12.75Z"></path></g><path id="圆形 2" fill-rule="evenodd" style="fill:#E6E6E6" opacity="1" d="M21 63C18.93 63 17.25 64.68 17.25 66.75C17.25 68.82 18.93 70.5 21 70.5C23.07 70.5 24.75 68.82 24.75 66.75C24.75 64.68 23.07 63 21 63Z"></path></g></g><defs><rect id="path_0" x="0" y="0" width="120" height="90" /></defs></svg>