<svg xmlns="http://www.w3.org/2000/svg" xmlns:xlink="http://www.w3.org/1999/xlink" width="16" height="16" viewBox="0 0 16 16" fill="none"><g opacity="1"  transform="translate(0 0)  rotate(0)"><mask id="bg-mask-0" fill="white"><use xlink:href="#path_0"></use></mask><g mask="url(#bg-mask-0)" ><path id="路径 1 (轮廓)" fill-rule="evenodd" style="fill:#202020" opacity="1" d="M8.19 5.54C8.16 5.53 8.13 5.52 8.1 5.51C8.07 5.5 8.03 5.5 8 5.5C7.97 5.5 7.93 5.5 7.9 5.51C7.87 5.52 7.84 5.53 7.81 5.54C7.78 5.55 7.75 5.57 7.72 5.58C7.69 5.6 7.67 5.62 7.65 5.65L4.15 9.15C4.12 9.17 4.1 9.19 4.08 9.22C4.07 9.25 4.05 9.28 4.04 9.31C4.03 9.34 4.02 9.37 4.01 9.4C4 9.43 4 9.47 4 9.5C4 9.53 4 9.57 4.01 9.6C4.02 9.63 4.03 9.66 4.04 9.69C4.05 9.72 4.07 9.75 4.08 9.78C4.1 9.81 4.12 9.83 4.15 9.85C4.17 9.88 4.19 9.9 4.22 9.92C4.25 9.93 4.28 9.95 4.31 9.96C4.34 9.97 4.37 9.98 4.4 9.99C4.43 10 4.47 10 4.5 10C4.53 10 4.57 10 4.6 9.99C4.63 9.98 4.66 9.97 4.69 9.96C4.72 9.95 4.75 9.93 4.78 9.92C4.81 9.9 4.83 9.88 4.85 9.85L8 6.71L11.15 9.85C11.19 9.9 11.25 9.94 11.31 9.96C11.37 9.99 11.43 10 11.5 10C11.57 10 11.63 9.99 11.69 9.96C11.75 9.94 11.81 9.9 11.85 9.85C11.88 9.83 11.9 9.81 11.92 9.78C11.93 9.75 11.95 9.72 11.96 9.69C11.97 9.66 11.98 9.63 11.99 9.6C12 9.57 12 9.53 12 9.5C12 9.47 12 9.43 11.99 9.4C11.98 9.37 11.97 9.34 11.96 9.31C11.95 9.28 11.93 9.25 11.92 9.22C11.9 9.19 11.88 9.17 11.85 9.15L8.35 5.65C8.33 5.62 8.31 5.6 8.28 5.58C8.25 5.57 8.22 5.55 8.19 5.54Z"></path></g></g><defs><rect id="path_0" x="0" y="0" width="16" height="16" /></defs></svg>