<svg xmlns="http://www.w3.org/2000/svg" xmlns:xlink="http://www.w3.org/1999/xlink" width="16" height="16" viewBox="0 0 16 16" fill="none"><g opacity="0.8"  transform="translate(0 0)  rotate(0)"><path id="减去顶层" fill-rule="evenodd" style="fill:#202020" opacity="0.6" d="M8,2c3.31,0 6,2.69 6,6c0,3.31 -2.69,6 -6,6c-3.31,0 -6,-2.69 -6,-6c0,-3.31 2.69,-6 6,-6zM7.99998,8.70708l1.76778,1.76782c0.198,0.198 0.50914,0.198 0.70714,0c0.198,-0.198 0.198,-0.50915 0,-0.70714l-1.76782,-1.76779l1.76782,-1.76779c0.198,-0.19799 0.198,-0.50911 0,-0.7071c-0.198,-0.19799 -0.50915,-0.19799 -0.70714,0l-1.76778,1.76778l-1.76775,-1.76774c-0.19799,-0.19799 -0.50912,-0.19799 -0.70711,0c-0.19799,0.19799 -0.19799,0.50912 0,0.7071l1.76775,1.76775l-1.76775,1.76775c-0.19799,0.19799 -0.19799,0.50908 0,0.70708c0.19799,0.198 0.50912,0.198 0.70711,0z"></path></g></svg>