<svg xmlns="http://www.w3.org/2000/svg" xmlns:xlink="http://www.w3.org/1999/xlink" width="16" height="16" viewBox="0 0 16 16" fill="none"><g opacity="0.4"  transform="translate(0 0)  rotate(0)"><g opacity="1"  transform="translate(0 0)  rotate(0)"><path id="并集" fill-rule="evenodd" style="fill:#202020" opacity="1" d="M2.00001,6.99199v-0.00412c0.00655,-2.75443 2.24403,-4.98787 4.99999,-4.98787c2.76,0 5,2.24 5,5c0,1.20186 -0.4248,2.30512 -1.1322,3.1678l2.9822,2.9822c0.03,0.02 0.05,0.04 0.07,0.07c0.01,0.03 0.03,0.06 0.04,0.09l0.03,0.09c0.01,0.03 0.01,0.07 0.01,0.1c0,0.03 0,0.07 -0.01,0.1l-0.03,0.09c-0.01,0.03 -0.03,0.06 -0.04,0.09c-0.02,0.03 -0.04,0.05 -0.07,0.07c-0.02,0.03 -0.04,0.05 -0.07,0.07c-0.03,0.01 -0.06,0.03 -0.09,0.04l-0.09,0.03c-0.03,0.01 -0.07,0.01 -0.1,0.01c-0.03,0 -0.07,0 -0.1,-0.01l-0.09,-0.03c-0.03,-0.01 -0.06,-0.03 -0.09,-0.04c-0.03,-0.02 -0.05,-0.04 -0.07,-0.07l-2.9822,-2.9822c-0.86268,0.7074 -1.96594,1.1322 -3.1678,1.1322c-2.75596,0 -4.99344,-2.23344 -4.99999,-4.98787v-0.00412l-0.00001,-0.00724v-0.00077l0.00001,-0.00725zM5.72492,3.20732c-0.00134,0.00045 -0.00268,0.00091 -0.00401,0.00136c-1.18068,0.39788 -2.11436,1.33158 -2.51224,2.51226c-0.13778,0.40654 -0.20733,0.82866 -0.20865,1.26635l-0.00001,0.00624l-0.00001,0.00647l0.00001,0.00647c0.00067,0.4385 0.06978,0.86137 0.20731,1.26862c0.00046,0.00135 0.00092,0.00271 0.00138,0.00407c0.39791,1.18067 1.33162,2.11434 2.51232,2.51224c0.41045,0.13907 0.83677,0.2086 1.27898,0.2086c0.44081,0 0.86584,-0.0691 1.27509,-0.2073c0.00147,-0.00053 0.00295,-0.00103 0.00443,-0.0015c1.17932,-0.3976 2.11218,-1.32978 2.51068,-2.50868l0.0011,-0.00346c0.13913,-0.41047 0.2087,-0.83683 0.2087,-1.27906c0,-0.44081 -0.0691,-0.86583 -0.2073,-1.27508l-0.0015,-0.00436v-0.00015c-0.398,-1.18042 -1.33159,-2.11389 -2.51208,-2.51172c-0.41049,-0.13913 -0.83687,-0.20869 -1.27912,-0.20869c-0.44081,0 -0.86583,0.06911 -1.27508,0.20732z"></path></g></g></svg>