<svg xmlns="http://www.w3.org/2000/svg" xmlns:xlink="http://www.w3.org/1999/xlink" width="120" height="90" viewBox="0 0 120 90" fill="none"><g opacity="1"  transform="translate(0 0)  rotate(0)"><mask id="bg-mask-0" fill="white"><use xlink:href="#path_0"></use></mask><g mask="url(#bg-mask-0)" ><g opacity="1"  transform="translate(85.5 7.5)  rotate(0)"><path id="圆形 2" fill-rule="evenodd" style="fill:#808080" opacity="0.2" d="M5.25 0C2.35 0 0 2.35 0 5.25C0 8.15 2.35 10.5 5.25 10.5C8.15 10.5 10.5 8.15 10.5 5.25C10.5 2.35 8.15 0 5.25 0Z"></path><path id="圆形 2" fill-rule="evenodd" style="fill:#808080" opacity="0.2" d="M21.38 12.75C19.93 12.75 18.75 13.93 18.75 15.38C18.75 16.82 19.93 18 21.38 18C22.82 18 24 16.82 24 15.38C24 13.93 22.82 12.75 21.38 12.75Z"></path></g><path id="圆形 4" fill-rule="evenodd" style="fill:#808080" opacity="0.2" d="M60 9C40.12 9 24 25.12 24 45C24 64.88 40.12 81 60 81C79.88 81 96 64.88 96 45C96 25.12 79.88 9 60 9Z"></path><g opacity="1"  transform="translate(35.27984619140625 28.08453369140625)  rotate(0)"><path id="路径 2" fill-rule="evenodd" style="fill:#FFFFFF" opacity="0.6" d="M49.44 10.06C43.11 3.82 34.45 0 24.86 0C15.18 0 6.33 4 0 10.33L4.93 15.27C9.96 10.15 17.04 6.98 24.86 6.98C32.49 6.98 39.48 10.06 44.51 14.99L49.44 10.06Z"></path><path id="路径 3" fill-rule="evenodd" style="fill:#FFFFFF" opacity="0.6" d="M39.4763 19.83C35.7563 16.11 30.5363 13.78 24.7663 13.78C18.8963 13.78 13.5963 16.2 9.77631 20.11L14.7063 25.05C17.3163 22.44 20.8563 20.76 24.8563 20.76C28.7663 20.76 32.2163 22.25 34.7263 24.77L39.4763 19.83Z"></path><path id="路径 4" fill-rule="evenodd" style="fill:#FFFFFF" opacity="0.9" d="M24.8558 27.6531C22.8158 27.6531 20.9458 28.5831 19.6458 29.9831L23.8358 34.1731C24.2458 34.5831 24.9158 34.5831 25.3258 34.1731L29.7958 29.7031C28.4958 28.4931 26.8158 27.6531 24.8558 27.6531Z"></path></g><g opacity="1"  transform="translate(67.070068359375 45.34991455078125)  rotate(0)"><path id="路径 1" fill-rule="evenodd" style="fill:#FFFFFF" opacity="1" d="M17.65 8.83C17.65 3.95 13.7 0 8.83 0C3.95 0 0 3.95 0 8.83C0 13.7 3.95 17.65 8.83 17.65C13.7 17.65 17.65 13.7 17.65 8.83Z"></path><path  id="路径 1" style="fill:#E6E6E6; opacity:1;" d="M15.8441,15.8441c-0.91507,0.915 -1.966,1.62357 -3.1528,2.1257c-1.22947,0.52013 -2.51657,0.7802 -3.8613,0.7802c-1.34694,0 -2.63579,-0.26 -3.86655,-0.78c-1.18821,-0.50207 -2.24019,-1.2106 -3.15596,-2.1256c-0.91566,-0.91493 -1.62468,-1.96593 -2.12706,-3.153c-0.52028,-1.22933 -0.78043,-2.51647 -0.78043,-3.8614c0,-1.34713 0.26007,-2.63602 0.78022,-3.86668c0.50229,-1.1884 1.21127,-2.24045 2.12696,-3.15614c0.91569,-0.91569 1.96774,-1.62467 3.15614,-2.12696c1.23066,-0.52015 2.51955,-0.78022 3.86668,-0.78022c1.34493,0 2.63207,0.26014 3.8614,0.78042c1.18707,0.50238 2.23807,1.21141 3.153,2.12707c0.915,0.91577 1.62353,1.96775 2.1256,3.15596c0.52,1.23076 0.78,2.51961 0.78,3.86655c0,1.34473 -0.26007,2.63183 -0.7802,3.8613c-0.50213,1.1868 -1.2107,2.23773 -2.1257,3.1528zM14.2881,3.36251c-0.7126,-0.71321 -1.53067,-1.26523 -2.4542,-1.65606c-0.95527,-0.4043 -1.95657,-0.60645 -3.0039,-0.60645c-1.04991,0 -2.05331,0.20222 -3.0102,0.60665c-0.92472,0.39084 -1.74371,0.9429 -2.45698,1.65617c-0.71327,0.71327 -1.26533,1.53226 -1.65617,2.45698c-0.40443,0.95689 -0.60665,1.96029 -0.60665,3.0102c0,1.04733 0.20215,2.04863 0.60645,3.0039c0.39084,0.92353 0.94286,1.7416 1.65606,2.4542c0.71341,0.71287 1.53247,1.26463 2.45717,1.6553c0.95706,0.4044 1.9605,0.6066 3.01032,0.6066c1.04727,0 2.04863,-0.2021 3.0041,-0.6063c0.9234,-0.39073 1.7415,-0.9425 2.4543,-1.6553c0.7128,-0.7128 1.26457,-1.5309 1.6553,-2.4543c0.4042,-0.95547 0.6063,-1.95683 0.6063,-3.0041c0,-1.04982 -0.2022,-2.05326 -0.6066,-3.01032c-0.39067,-0.9247 -0.94243,-1.74376 -1.6553,-2.45717z"></path><g opacity="1"  transform="translate(7.5936279296875 4.0291748046875)  rotate(0)"><g opacity="1"  transform="translate(0 0)  rotate(0)"><path id="路径 2" fill-rule="evenodd" style="fill:#D5D5D7" opacity="1" d="M1.19002 0C0.60002 0 0.0200195 0.47 0.0200195 1.06L0.33002 5.46C0.33002 6.04 0.59002 6.52 1.18002 6.52C1.76002 6.52 2.06002 6.04 2.06002 5.46L2.37002 1.06C2.37002 0.47 1.77002 0 1.19002 0Z"></path><path id="路径 3" fill-rule="evenodd" style="fill:#D5D5D7" opacity="1" d="M0 8.78821C0 9.44821 0.53 9.98821 1.19 9.98821C1.85 9.98821 2.39 9.44821 2.39 8.78821C2.39 8.13821 1.85 7.59821 1.19 7.59821C0.53 7.59821 0 8.13821 0 8.78821Z"></path></g></g></g><path id="圆形 2" fill-rule="evenodd" style="fill:#808080" opacity="0.2" d="M21 63C18.93 63 17.25 64.68 17.25 66.75C17.25 68.82 18.93 70.5 21 70.5C23.07 70.5 24.75 68.82 24.75 66.75C24.75 64.68 23.07 63 21 63Z"></path></g></g><defs><rect id="path_0" x="0" y="0" width="120" height="90" /></defs></svg>