<svg xmlns="http://www.w3.org/2000/svg" xmlns:xlink="http://www.w3.org/1999/xlink" width="16" height="16" viewBox="0 0 16 16" fill="none"><g opacity="0.8"  transform="translate(0 0)  rotate(0)"><mask id="bg-mask-0" fill="white"><use xlink:href="#path_0"></use></mask><g mask="url(#bg-mask-0)" ><path id="路径 1 (轮廓)" fill-rule="evenodd" style="fill:#FFFFFF" opacity="1" d="M4.31 6.04C4.28 6.05 4.25 6.07 4.22 6.08C4.19 6.1 4.17 6.12 4.15 6.15C4.12 6.17 4.1 6.19 4.08 6.22C4.07 6.25 4.05 6.28 4.04 6.31C4.03 6.34 4.02 6.37 4.01 6.4C4 6.43 4 6.47 4 6.5C4 6.53 4 6.57 4.01 6.6C4.02 6.63 4.03 6.66 4.04 6.69C4.05 6.72 4.07 6.75 4.08 6.78C4.1 6.81 4.12 6.83 4.15 6.85L7.65 10.35C7.67 10.38 7.69 10.4 7.72 10.42C7.75 10.43 7.78 10.45 7.81 10.46C7.84 10.47 7.87 10.48 7.9 10.49C7.93 10.5 7.97 10.5 8 10.5C8.03 10.5 8.07 10.5 8.1 10.49C8.13 10.48 8.16 10.47 8.19 10.46C8.22 10.45 8.25 10.43 8.28 10.42C8.31 10.4 8.33 10.38 8.35 10.35L11.85 6.85C11.88 6.83 11.9 6.81 11.92 6.78C11.93 6.75 11.95 6.72 11.96 6.69C11.97 6.66 11.98 6.63 11.99 6.6C12 6.57 12 6.53 12 6.5C12 6.47 12 6.43 11.99 6.4C11.98 6.37 11.97 6.34 11.96 6.31C11.95 6.28 11.93 6.25 11.92 6.22C11.9 6.19 11.88 6.17 11.85 6.15C11.81 6.1 11.75 6.06 11.69 6.04C11.63 6.01 11.57 6 11.5 6C11.43 6 11.37 6.01 11.31 6.04C11.25 6.06 11.19 6.1 11.15 6.15L8 9.29L4.85 6.15C4.83 6.12 4.81 6.1 4.78 6.08C4.75 6.07 4.72 6.05 4.69 6.04C4.66 6.03 4.63 6.02 4.6 6.01C4.57 6 4.53 6 4.5 6C4.47 6 4.43 6 4.4 6.01C4.37 6.02 4.34 6.03 4.31 6.04Z"></path></g></g><defs><rect id="path_0" x="0" y="0" width="16" height="16" /></defs></svg>